PathFileType	4	(X/Y/Z)	/Users/itak/Documents/Research/Walk-IL/dataset/trc/00145_00007.trc
DataRate	CameraRate	NumFrames	NumMarkers	Units	OrigDataRate	OrigDataStartFrame	OrigNumFrames
100.000000	100.000000	4	53	mm	100.000000	257	514
Frame#	Time	RPSI			LPSI			L3			STRN			T10			C7			CLAV			RBAK			LBAK			LSHO			LUPA			LAEL			LAOL			LWTS			LWPS			LFRA			LIFD			LHPS			LHTS			RSHO			RUPA			RAEL			RAOL			RWTS			RWPS			RFRA			RIFD			RHTS			RHPS			RBHD			LFHD			RFHD			LBHD			LHIP			RHIP			RASI			LASI			LKNE			LTHI			LANK			LTIP			LTOE			LMT1			LMT5			LHEE			RKNE			RTHI			RANK			RTIP			RTOE			RMT1			RMT5			RHEE			
		X1	Y1	Z1	X2	Y2	Z2	X3	Y3	Z3	X4	Y4	Z4	X5	Y5	Z5	X6	Y6	Z6	X7	Y7	Z7	X8	Y8	Z8	X9	Y9	Z9	X10	Y10	Z10	X11	Y11	Z11	X12	Y12	Z12	X13	Y13	Z13	X14	Y14	Z14	X15	Y15	Z15	X16	Y16	Z16	X17	Y17	Z17	X18	Y18	Z18	X19	Y19	Z19	X20	Y20	Z20	X21	Y21	Z21	X22	Y22	Z22	X23	Y23	Z23	X24	Y24	Z24	X25	Y25	Z25	X26	Y26	Z26	X27	Y27	Z27	X28	Y28	Z28	X29	Y29	Z29	X30	Y30	Z30	X31	Y31	Z31	X32	Y32	Z32	X33	Y33	Z33	X34	Y34	Z34	X35	Y35	Z35	X36	Y36	Z36	X37	Y37	Z37	X38	Y38	Z38	X39	Y39	Z39	X40	Y40	Z40	X41	Y41	Z41	X42	Y42	Z42	X43	Y43	Z43	X44	Y44	Z44	X45	Y45	Z45	X46	Y46	Z46	X47	Y47	Z47	X48	Y48	Z48	X49	Y49	Z49	X50	Y50	Z50	X51	Y51	Z51	X52	Y52	Z52	X53	Y53	Z53	

258	2.57	165.6714630126953	1117.070190429688	1098.995483398438	97.68115997314453	1113.291137695312	981.573486328125	122.1297378540039	1150.369384765625	1039.217529296875	305.8440551757812	1351.536865234375	934.095458984375	80.00518798828125	1299.9599609375	1047.849609375	102.6519622802734	1592.032348632812	1013.975524902344	270.7259826660156	1485.872802734375	947.1986083984375	89.67043304443359	1408.056518554688	1117.091796875	53.50294876098633	1571.24072265625	922.2651977539062	106.433219909668	1555.904663085938	825.7872314453125	69.14152526855469	1422.686767578125	767.5137329101562	95.61838531494141	1204.3115234375	737.955810546875	59.76950454711914	1186.433715820312	816.9765014648438	223.8807983398438	954.8568725585938	735.8132934570312	140.3756561279297	923.1611328125	742.717529296875	118.4111938476562	1089.49365234375	726.4719848632812	258.9666442871094	763.7391967773438	740.9736938476562	172.6700286865234	850.6795043945312	729.3678588867188	239.2166748046875	868.1561279296875	718.4539184570312	228.1562652587891	1573.606567382812	1156.26025390625	237.1286315917969	1500.638427734375	1221.466552734375	226.0477905273438	1206.564208984375	1244.62939453125	187.6071319580078	1205.682495117188	1153.04736328125	349.4764404296875	957.4503784179688	1190.531127929688	288.1868591308594	944.6583251953125	1244.215454101562	250.6689910888672	1132.588745117188	1253.109619140625	359.9161682128906	762.0667724609375	1171.010986328125	374.0716857910156	848.5230712890625	1188.7412109375	319.607177734375	843.6942138671875	1236.867065429688	201.7754821777344	1764.47119140625	1068.968627929688	189.8757781982422	1830.367553710938	858.4242553710938	289.4165649414062	1850.701049804688	939.1633911132812	94.84128570556641	1745.8876953125	990.8604736328125	123.4288711547852	1021.14599609375	843.2805786132812	340.3153991699219	1032.766479492188	1137.079345703125	376.0658874511719	1103.104736328125	1048.760620117188	235.31396484375	1087.505615234375	824.0432739257812	157.1832122802734	510.19140625	887.4117431640625	131.1553192138672	662.1255493164062	864.7998657226562	-164.9329681396484	117.659782409668	1060.799438476562	-44.21508026123047	334.6410827636719	960.7000732421875	43.36892318725586	35.25872421264648	1082.93310546875	-15.25100231170654	66.59941101074219	1122.533447265625	-72.05075836181641	44.21796417236328	1027.5087890625	-197.7585906982422	174.8297882080078	1127.737060546875	427.2254333496094	557.1226196289062	1040.8291015625	396.8087463378906	828.5545654296875	1098.2333984375	410.0459899902344	30.27633476257324	1076.908203125	439.1192321777344	420.8190002441406	1056.836547851562	538.6187744140625	48.8354377746582	876.8096313476562	468.2276000976562	41.97190475463867	889.2249145507812	521.6166381835938	40.57450866699219	999.2835083007812	334.4423217773438	32.69236755371094	1079.35595703125	
259	2.58	176.1667938232422	1118.430297851562	1096.618408203125	106.3947982788086	1114.166381835938	980.0076293945312	131.5977325439453	1151.5107421875	1037.313720703125	314.0033264160156	1352.775024414062	929.5776977539062	89.81691741943359	1301.029907226562	1046.405639648438	111.5817184448242	1593.061767578125	1012.191345214844	278.8853759765625	1487.101806640625	943.1251831054688	100.4913787841797	1409.188232421875	1115.594116210938	61.17267990112305	1572.134155273438	921.1798095703125	112.8383712768555	1557.0908203125	824.0269775390625	74.92692565917969	1423.986083984375	765.9517211914062	100.7383575439453	1205.509643554688	736.294921875	65.00172424316406	1188.14208984375	815.4664916992188	224.510009765625	953.3535766601562	734.883544921875	140.2959136962891	923.6593627929688	741.74755859375	121.8833999633789	1090.380126953125	725.0379028320312	254.8208312988281	761.24365234375	741.9674682617188	170.8233947753906	850.25927734375	729.10400390625	237.8295745849609	865.9274291992188	718.3563232421875	239.0764617919922	1575.05712890625	1152.617919921875	248.9631652832031	1502.299560546875	1217.837036132812	237.5841369628906	1208.174682617188	1241.556518554688	198.2332153320312	1207.317504882812	1150.143188476562	361.8821411132812	959.8811645507812	1185.951293945312	300.9939270019531	946.4324340820312	1239.939697265625	262.4314270019531	1134.201171875	1249.686889648438	373.9946594238281	764.7236328125	1165.768676757812	387.44970703125	851.2512817382812	1183.721557617188	333.2287902832031	845.7395629882812	1232.05224609375	210.504150390625	1765.848266601562	1065.928100585938	196.5312347412109	1831.557495117188	855.4603881835938	296.7600402832031	1852.070068359375	935.2904663085938	102.8118438720703	1746.893676757812	988.6494750976562	130.5626831054688	1021.727172851562	841.52587890625	350.7619018554688	1034.268676757812	1132.691162109375	385.698486328125	1104.30126953125	1043.759033203125	242.0577239990234	1088.49853515625	820.9553833007812	170.8041076660156	510.1300964355469	878.3671264648438	142.5141906738281	662.3304443359375	858.6991577148438	-158.62841796875	125.4277267456055	1058.71630859375	-32.87844848632812	339.4002685546875	955.6948852539062	44.68119812011719	34.82133102416992	1080.065673828125	-10.61028575897217	69.21257781982422	1119.771606445312	-70.24003601074219	45.73031616210938	1027.125732421875	-187.34130859375	185.8149719238281	1124.750122070312	431.8900451660156	556.6115112304688	1040.33056640625	404.9554138183594	829.0777587890625	1095.468139648438	410.1669616699219	30.35325622558594	1076.81494140625	442.4474792480469	420.2610168457031	1056.833740234375	538.7239379882812	47.20002365112305	875.9861450195312	468.2565002441406	41.13640213012695	888.9633178710938	521.8535766601562	40.55593872070312	999.2005004882812	334.5882568359375	32.77842330932617	1079.412231445312	
260	2.59	186.2650299072266	1119.594360351562	1094.158203125	114.7938003540039	1114.786987304688	978.354248046875	140.7437133789062	1152.458618164062	1035.327514648438	321.9585876464844	1353.771606445312	924.9849853515625	99.44087219238281	1302.010009765625	1044.895629882812	120.515754699707	1593.993041992188	1010.36474609375	286.9169921875	1488.09912109375	938.9379272460938	111.2924118041992	1410.264038085938	1114.14111328125	68.78274536132812	1572.911743164062	920.1513671875	119.0893783569336	1558.046264648438	822.2846069335938	80.45209503173828	1425.0498046875	764.5164184570312	105.6515655517578	1206.497680664062	734.6901245117188	69.98499298095703	1189.583740234375	813.9758911132812	225.1962738037109	951.8888549804688	734.0180053710938	140.3492431640625	924.0975952148438	740.6309204101562	125.2820205688477	1091.111450195312	723.6174926757812	250.9058227539062	758.9278564453125	742.9813842773438	169.1948852539062	849.8770751953125	728.7172241210938	236.6277770996094	863.8050537109375	718.3109741210938	250.1521301269531	1576.349243164062	1148.823120117188	261.0108032226562	1503.808349609375	1214.050170898438	249.4376068115234	1209.628662109375	1238.540893554688	208.9651641845703	1208.752685546875	1147.34765625	374.4912109375	962.1791381835938	1181.240478515625	314.0903930664062	948.0753173828125	1235.633911132812	274.4913635253906	1135.670776367188	1246.258178710938	388.3169250488281	767.2666015625	1160.43798828125	401.0568542480469	853.871826171875	1178.565673828125	347.1647033691406	847.6697387695312	1227.185913085938	219.1923522949219	1767.000854492188	1062.833618164062	203.0760650634766	1832.548095703125	852.4738159179688	303.9985656738281	1853.300659179688	931.3465576171875	110.7488098144531	1747.64013671875	986.4317016601562	137.4829559326172	1022.053344726562	839.635498046875	360.8235168457031	1035.646362304688	1128.339599609375	395.0348510742188	1105.307250976562	1038.801513671875	248.6488647460938	1089.29931640625	817.8919677734375	184.5538024902344	510.1231384277344	869.0692138671875	153.9575347900391	662.4562377929688	852.33740234375	-151.3482818603516	133.4102172851562	1056.542358398438	-20.95548820495605	344.0644226074219	950.4588623046875	46.79803085327148	34.39089584350586	1075.904418945312	-4.933928489685059	72.03702545166016	1116.201171875	-67.73937225341797	47.97772979736328	1026.078491210938	-175.8776397705078	196.5099029541016	1121.788818359375	436.3779296875	556.0866088867188	1040.130249023438	412.84814453125	829.5541381835938	1092.822265625	410.251953125	30.38368797302246	1076.767700195312	445.5991821289062	419.7089233398438	1057.11669921875	538.7818603515625	46.09934616088867	875.4483032226562	468.3011779785156	40.61516189575195	888.7999877929688	522.0659790039062	40.51747131347656	999.2208862304688	334.6789855957031	32.84418106079102	1079.449462890625	
261	2.6	195.9337768554688	1120.564208984375	1091.605712890625	122.8718948364258	1115.164794921875	976.611572265625	149.5487213134766	1153.2158203125	1033.262817382812	329.6851501464844	1354.53515625	920.3287963867188	108.8501129150391	1302.91748046875	1043.3095703125	129.4386901855469	1594.84033203125	1008.484069824219	294.7968139648438	1488.872802734375	934.6436767578125	122.009521484375	1411.295654296875	1112.705688476562	76.32994842529297	1573.597412109375	919.1504516601562	125.1992111206055	1558.7802734375	820.53955078125	85.71359252929688	1425.882202148438	763.20751953125	110.309944152832	1207.264526367188	733.179931640625	74.72437286376953	1190.75830078125	812.5755615234375	225.9518280029297	950.4752197265625	733.1971435546875	140.542724609375	924.4562377929688	739.4390258789062	128.5614624023438	1091.674438476562	722.2576293945312	247.305419921875	756.8071899414062	743.8863525390625	167.8143157958984	849.5234985351562	728.2166137695312	235.6288604736328	861.8175659179688	718.25	261.3316955566406	1577.477172851562	1144.872680664062	273.2108154296875	1505.145751953125	1210.093017578125	261.64404296875	1210.913452148438	1235.5634765625	219.8312377929688	1209.955444335938	1144.68798828125	387.2925720214844	964.3069458007812	1176.378662109375	327.4962463378906	949.5797119140625	1231.304443359375	286.8917236328125	1136.98974609375	1242.809326171875	402.8006591796875	769.6475219726562	1155.021484375	414.8482360839844	856.336669921875	1173.254638671875	361.3974609375	849.4645385742188	1222.278686523438	227.8457794189453	1767.94482421875	1059.686401367188	209.5164031982422	1833.351684570312	849.460205078125	311.1341247558594	1854.3994140625	927.3349609375	118.652587890625	1748.133544921875	984.2033081054688	144.2355346679688	1022.154052734375	837.6405029296875	370.5073852539062	1036.892578125	1124.026977539062	404.0645751953125	1106.147338867188	1033.898803710938	255.0867767333984	1089.925659179688	814.8430786132812	198.4242095947266	510.2114868164062	859.6199340820312	165.4979858398438	662.5429077148438	845.7574462890625	-142.9931640625	141.5131988525391	1054.284545898438	-8.458984375	348.5615539550781	945.041015625	49.90937042236328	34.04336929321289	1070.140991210938	1.896440744400024	74.98011779785156	1111.609008789062	-64.3363037109375	51.07390213012695	1024.083618164062	-163.3618011474609	206.6520080566406	1118.971435546875	440.72216796875	555.5595703125	1040.078002929688	420.5093078613281	829.9828491210938	1090.221557617188	410.322021484375	30.36123847961426	1076.772705078125	448.6378173828125	419.1765747070312	1057.498657226562	538.8002319335938	45.43246078491211	875.1488037109375	468.35205078125	40.34180068969727	888.72802734375	522.2582397460938	40.45813369750977	999.321044921875	334.7375183105469	32.89205551147461	1079.4931640625	
